<?xml version="1.0" encoding="utf-8"?>
<!-- Generator: Adobe Illustrator 22.1.0, SVG Export Plug-In . SVG Version: 6.00 Build 0)  -->
<svg version="1.1" id="Capa_1" xmlns="http://www.w3.org/2000/svg" xmlns:xlink="http://www.w3.org/1999/xlink" x="0px" y="0px"
	 viewBox="0 0 342.8 414.8" style="enable-background:new 0 0 342.8 414.8;" xml:space="preserve">
<style type="text/css">
	.st0{fill:#3CA5D1;}
	.st1{fill:#1896BB;}
</style>
<g>
	<path class="st0" d="M244.7,111.1c-4.5,1.4-7.7,2.4-10.8,3.5c-10.7,3.5-21.5,6.9-32,10.8c-2.6,1-5.3,3.5-6.5,6.1
		c-4.2,8.7-8,17.6-11.6,26.6c-0.8,1.9-0.5,4.7,0.3,6.6c2.9,7.4,6.2,14.7,9.6,22.6c-15.2,0-29.3,0-44.4,0c3.5-8.1,6.8-15.3,9.7-22.7
		c0.8-2,0.9-4.7,0.2-6.6c-3.7-9.2-7.6-18.2-11.8-27.1c-0.9-1.9-2.8-4.1-4.7-4.8c-13.5-4.8-27-9.2-40.6-13.7
		c-0.8-0.3-1.8-0.2-4.1-0.3c9.4,12.3,18.5,23.1,34.2,23.9c7.7,0.4,11.6,3.6,15.1,10.7c5.1,10.1,5.4,18.5-0.2,28.6
		c-6.9,12.4-6.2,12.8,4.9,22c4.2,3.5,8.5,6.8,12.6,10.3c5.3,4.5,4.6,9.3-1.8,11.5c-7.6,2.7-15.2,5.5-22.9,7.6
		c-2.2,0.6-5.7,0-7.4-1.4c-10.1-8.7-19.8-17.8-29.8-26.6c-3-2.6-3.5-4.7-1.2-8.1c5.4-8.2,10.5-16.7,15.9-25.4
		c-1.3-1.2-2.4-2.4-3.6-3.3c-5.7-4.2-11-9.1-17.2-12.3c-12.6-6.6-18.3-16.9-19.6-30.7c-0.7-7.6-5.2-15.8-3.2-22.3
		c1.9-6.3,9.8-10.7,15.2-15.9C93.9,76,98.5,69,104,68c5.5-1,12.2,4.1,18.3,6.6c15,6.4,29.9,13,45,19.2c2.4,1,5.9,0.9,8.4-0.1
		c19.3-8,38.6-16.3,57.7-24.8c4.5-2,7.2-1.3,10.5,2c7.4,7.5,15,14.7,22.8,21.7c2.7,2.5,3.6,4.9,2.8,8.4c-2.6,11.2-4.7,22.5-7.4,33.6
		c-0.5,2.3-2.4,4.6-4.3,6c-9,6.8-18.2,13.3-27.3,20c-1.6,1.2-3.1,2.4-5.1,4c5.4,8.7,10.4,17.1,15.9,25.3c2.3,3.5,2.3,5.7-1,8.6
		c-9.9,8.6-19.4,17.7-29.3,26.2c-1.8,1.6-5.5,2.3-7.8,1.7c-7.9-2.2-15.7-5.1-23.5-7.9c-5.3-1.9-6.2-6.8-1.9-10.5
		c6.7-5.8,13.6-11.4,20.6-16.8c2.9-2.2,3.8-4.4,1.9-7.7c-0.8-1.4-1.1-3.1-2-4.4c-8.9-12.4-8.2-24.6-0.1-37.1
		c2.1-3.2,3.6-5.4,7.6-5.4c16.2-0.2,27.6-8.9,36.8-21.2C242.9,114.5,243.4,113.5,244.7,111.1z"/>
	<path class="st0" d="M203.9,249.9c2.9,8.7-2.5,13.9-11,18.1c-6.3,3.1-14.1,6.2-17.2,11.6c-3,5.2-1,13.3-1,20.2
		c0,30,0,60.1-0.1,90.1c0,3.7,0.3,6.7,3.5,9.6c3.9,3.5,3.2,9.6-0.7,12.9c-3.9,3.3-8.2,3.3-12.1,0c-3.9-3.2-4.6-9.3-0.7-12.9
		c3.1-2.9,3.5-5.8,3.5-9.6c-0.1-34.9-0.1-69.8,0.1-104.7c0-4.9-1.5-7.7-5.7-10c-6.7-3.6-13.3-7.6-19.6-11.9
		c-1.9-1.3-3.7-4.2-3.8-6.5c-0.4-7.2-2.4-16.2,1-21.2c3.4-4.9,12.8-5.6,19.2-8.7c8.2-3.9,16.1-4.1,24.2,0c2.3,1.2,4.9,1.9,7.3,2.8
		C203.9,234.7,203.9,234.7,203.9,249.9z M171.8,412.1c2-3.4,4.1-5.3,4-7c-0.1-1.5-3-4.1-4.2-3.8c-1.8,0.4-4.2,2.6-4.5,4.3
		C166.8,407.1,169.3,408.9,171.8,412.1z"/>
	<path class="st1" d="M171.4,47.1c10.8-12,21.2-23.3,31.2-34.9c3.1-3.6,6.2-4.9,10.9-4.8c17.3,0.2,34.7,0.2,52,0
		c2.6,0,5.6-1.4,7.7-3.1c4.5-3.6,9.9-3.8,13.5,0.2c3.2,3.5,3.1,9.3-0.1,12.7c-3.7,3.9-9.2,3.6-13.6,0c-2.1-1.7-5.1-3.2-7.7-3.2
		c-16.7-0.3-33.5-0.3-50.2,0c-3,0.1-6.7,1.7-8.7,3.9c-10.3,10.8-20.1,22.1-30,33.2c-4.6,5.1-5.4,5.1-9.9,0.1
		c-10-11.1-19.8-22.3-30-33.2c-2.1-2.2-5.7-3.9-8.6-4c-16.9-0.4-33.9-0.3-50.8,0c-2.4,0-5.2,1.5-7.1,3.1c-4.4,3.7-9.8,4.1-13.6,0.3
		c-3.5-3.5-3.4-9.6,0.1-13.1c3.6-3.6,8.8-3.3,13.1,0c2.3,1.7,5.5,3.2,8.3,3.2c17.5,0.3,35.1,0.3,52.6,0.1c4,0,6.7,1.2,9.3,4.2
		C149.9,23.4,160.4,34.9,171.4,47.1z M280.3,17.6c2-3.6,3.9-5.5,3.7-7.1c-0.2-1.5-2.9-4.2-3.9-3.9c-1.8,0.5-4.1,2.6-4.3,4.3
		C275.5,12.3,277.8,14.2,280.3,17.6z M69.7,11.1c-3.3-2.4-5.2-4.7-6.8-4.5c-1.6,0.2-3.7,2.6-4.1,4.4c-0.2,1,2.4,3.8,3.8,3.9
		C64.4,14.9,66.2,13,69.7,11.1z"/>
	<path class="st1" d="M275.1,209c0,18,0.2,35.9-0.2,53.9c0,2.8-1.5,6.3-3.5,8.2c-7.3,7.2-15.1,14-22.7,20.9
		c-5.2,4.8-5.6,11.6-0.9,16.7c4,4.4,4.1,9.6,0.2,13.4c-3.5,3.4-9.1,3.4-12.6,0.2c-4-3.7-3.8-8.9-0.3-13.6c1.6-2.1,3.1-5.2,2.9-7.8
		c-0.4-5.8,1.6-9.8,6.1-13.4c6.6-5.3,12.4-11.6,19-16.9c4.3-3.5,5.7-7.4,5.6-13c-0.3-33.9-0.1-67.8-0.1-101.7c0-1.4-0.4-3,0.1-4.2
		c0.7-1.6,2-3,3-4.5c1.1,1.4,3.1,2.8,3.2,4.3c0.4,4.6,0.2,9.3,0.2,13.9C275.1,180,275.1,194.5,275.1,209z M248.4,315.9
		c-3.4-2.3-5.1-4.5-6.8-4.5c-1.6,0-3.1,2.3-4.7,3.5c1.4,1.7,2.6,4.3,4.3,4.7C242.7,319.9,244.8,317.9,248.4,315.9z"/>
	<path class="st1" d="M67.7,209c0-18,0-35.9,0-53.9c0-1.6-0.3-3.4,0.3-4.8c0.5-1.3,2-2.1,3.1-3.1c1,1.1,2.5,2,2.9,3.3
		c0.5,1.4,0.2,3.2,0.2,4.8c0,33.7,0.2,67.4-0.2,101.1c-0.1,6.7,1.8,11.3,7,15.4c6.8,5.4,12.9,11.6,19.3,17.4
		c0.4,0.4,1.1,0.7,1.3,1.2c3.5,8.7,5.1,17.9,8.2,26.7c0.5,1.5-4.1,6.4-6.8,6.8c-3,0.5-7.3-1.7-9.6-4c-3-3-1.9-7.2,0.7-10.5
		c6-7.6,5.6-12.4-1.4-18.8c-7.2-6.5-14.5-12.8-21.4-19.7c-2-2-3.5-5.4-3.5-8.2C67.6,244.9,67.7,226.9,67.7,209z M108.2,315.8
		c-3.3-2.3-5.1-4.3-6.9-4.4c-1.5,0-4.4,2.5-4.2,3.6c0.3,1.8,2.3,4.4,3.9,4.7C102.7,319.9,104.7,317.8,108.2,315.8z"/>
	<path class="st1" d="M153.5,327.5c0,11.7-0.2,23.4,0.1,35.1c0.1,2.6,1.5,5.6,3.1,7.7c3.5,4.4,3.7,10-0.1,13.5
		c-3.6,3.3-9,3.3-12.6-0.1c-3.9-3.7-3.6-9.1,0.1-13.5c1.6-1.9,3-4.7,3-7.2c0.2-22.4,0.3-44.7,0-67.1c0-3-1.6-6.6-3.8-8.7
		c-8.3-8.2-17.2-15.8-25.6-23.9c-1.6-1.5-3.1-3.9-3.1-6c-0.3-9.3-0.3-18.5,0-27.8c0-1.6,1.7-3.1,2.6-4.6c1.1,1.6,3.1,3.1,3.2,4.7
		c0.3,7.6-0.2,15.3,0.3,23c0.2,2.8,1.6,6.2,3.6,8.2c8.2,8,17,15.4,25.2,23.5c2.1,2.1,3.7,5.7,3.8,8.7
		C153.7,304.5,153.5,316,153.5,327.5z M150.3,384c2.2-3.5,4.3-5.3,4.3-7c0-1.5-2.7-4.2-3.8-4c-1.8,0.3-4.3,2.3-4.6,4
		C145.9,378.5,148.1,380.5,150.3,384z"/>
	<path class="st1" d="M228.4,245.7c3.5,10.7-2.9,18.9-12.5,26.4c-7.1,5.5-15.8,11.2-19.2,18.8c-3.4,7.6-1.1,17.8-1.2,26.8
		c-0.1,14.9-0.2,29.8,0.1,44.7c0.1,2.6,1.4,5.7,3,7.7c3.6,4.5,3.9,9.8,0,13.5c-3.5,3.4-9,3.4-12.6,0c-3.8-3.6-3.6-9.2-0.1-13.5
		c1.7-2.1,3.1-5.1,3.1-7.8c0.2-23.2,0-46.4,0.3-69.5c0-3,1.7-6.6,3.8-8.7c8.2-8.1,17-15.5,25.2-23.5c2-2,3.4-5.4,3.6-8.2
		c0.5-7.6,0-15.3,0.3-23c0.1-1.6,2.1-3.1,3.2-4.7c0.9,1.5,2.5,3,2.6,4.6C228.6,234.2,228.4,238.8,228.4,245.7z M199.3,376.8
		c-3.6-2-5.5-4-7.2-3.8c-1.5,0.1-4.1,2.9-3.9,4c0.4,1.8,2.6,4.2,4.2,4.4C194,381.5,195.9,379.2,199.3,376.8z"/>
	<path class="st1" d="M97.8,231.3c0,6.3,0.5,12.6-0.1,18.7c-0.8,7.6,2,12.9,7.7,17.7c7.8,6.7,15.1,14,22.2,21.4
		c2,2.1,3.5,5.4,3.5,8.3c0.4,12.5,0,25,0.4,37.5c0.1,2.4,1.4,5.2,3,7.2c3.7,4.5,4,9.8,0.1,13.5c-3.5,3.4-9,3.5-12.6,0.2
		c-3.8-3.5-3.6-9.2-0.2-13.6c1.7-2.2,3-5.1,3.1-7.8c0.3-11.3,0.3-22.6-0.2-33.9c-0.1-3-1.6-6.7-3.7-8.8
		c-8.4-8.7-17.4-16.8-25.9-25.5c-1.9-1.9-3.3-5.1-3.3-7.7c-0.3-17.5-0.3-35.1,0-52.7c0-1.9,2.1-3.8,3.2-5.8c0.9,1.9,2.6,3.8,2.7,5.8
		C98,214.3,97.8,222.8,97.8,231.3z M128.2,355.8c2.1-3.3,4.4-5.3,4.2-6.9c-0.2-1.6-2.8-3.7-4.6-4c-1.1-0.2-3.8,2.6-3.8,4
		C124,350.7,126.1,352.5,128.2,355.8z"/>
	<path class="st1" d="M251.2,232.2c0,8.7,0.3,17.4-0.2,26c-0.2,2.8-1.6,6.2-3.6,8.2c-8.3,8.5-17.2,16.5-25.4,25
		c-2.1,2.2-3.8,5.8-3.9,8.8c-0.5,11.5-0.4,23-0.2,34.5c0.1,2.5,1.4,5.3,3,7.3c3.5,4.4,3.8,10.1,0.1,13.6c-3.7,3.6-9.5,3.5-13-0.3
		c-3.7-3.9-3.2-8.9,0.7-13.5c1.5-1.8,2.7-4.4,2.7-6.7c0.3-12.1,0.4-24.2,0.1-36.3c-0.1-4.7,1.4-7.9,4.8-11
		c8-7.4,15.6-15.2,23.7-22.5c3.7-3.4,5.3-6.9,5.2-12.1c-0.3-15.7-0.2-31.5,0-47.2c0-2,2-4,3-6c1,2.1,2.8,4.1,2.9,6.2
		C251.4,214.9,251.2,223.5,251.2,232.2z M214.2,342.2c-2,3.5-4,5.5-3.8,7.2c0.2,1.5,3,4.2,4.1,3.9c1.8-0.4,4.1-2.7,4.3-4.4
		C219,347.3,216.6,345.5,214.2,342.2z"/>
	<path class="st1" d="M255,28.2c4.8,0,9.7,0.5,14.5-0.1c13-1.5,24.6,1,34.2,10.6c1.3,1.3,4.3,1.5,6.5,1.3c6-0.3,10.4,2.6,11,7.7
		c0.6,5-3,9.7-8,10.4c-5.1,0.7-9.2-2.9-10.7-8.5c-0.6-2.4-2.3-4.8-4.1-6.6c-7.1-7.2-15.6-9.3-25.7-8.7c-14.9,0.8-29.8,0-44.7,0.4
		c-2.9,0.1-6.6,1.8-8.6,4c-9.3,10.3-18,21.2-27.2,31.6c-1.3,1.5-4.1,1.7-6.2,2.6c0.5-2.2,0.4-5,1.7-6.6c9.4-11.6,19-23,28.9-34.1
		c1.8-2.1,5.3-3.6,8.1-3.7C234.8,27.9,244.9,28.2,255,28.2z M318.9,48.7c-3.4-2-5.5-4.2-7.1-3.9c-1.6,0.3-3.6,2.9-3.8,4.7
		c-0.1,1.1,2.7,3.7,4.1,3.7C313.9,53.2,315.6,51,318.9,48.7z"/>
	<path class="st1" d="M32.2,41.5c3.3-1.6,7.3-2.6,9.9-5c7.5-6.8,15.8-9,25.9-8.5c16.7,0.8,33.4,0.1,50.2,0.4c2.6,0,6,1.4,7.6,3.3
		c10.1,11.5,20,23.2,29.7,35.1c1.2,1.4,0.9,4.1,1.2,6.1c-2-0.7-4.6-0.8-5.8-2.1c-8.9-10.1-17.7-20.4-26.2-30.9
		c-3.2-4.1-6.7-5.5-11.8-5.4c-17.3,0.3-34.7,0.1-52,0.1c-7.9,0-19.2,8.8-21.1,16.3c-1.3,5.1-6,8.3-10.9,7.2c-4.7-1-8-5.5-7.4-10.3
		c0.6-4.8,4.7-8,9.9-7.8C31.7,40.5,31.9,41,32.2,41.5z M30.5,42.2c-2.1,3.5-4.3,5.6-4,7.1c0.3,1.7,2.9,3.6,4.7,3.9
		c1,0.2,3.6-2.7,3.6-4.2C34.8,47.3,32.8,45.6,30.5,42.2z"/>
	<path class="st1" d="M29.8,139.4c0-10.5-0.2-21,0.2-31.4c0.1-2.3,1.6-5.4,3.4-6.8c10.4-8,21-15.7,31.7-23.1
		c1.8-1.3,4.8-0.9,7.2-1.3c-1.2,2.1-2,4.9-3.8,6.3c-9.4,7.2-19,14.2-28.8,21.1c-3,2.1-4,4.5-4,8c0.1,20.3,0,40.7,0.2,61
		c0,4-0.9,6.9-4.2,9.2c-2.9,2.1-5.4,4.8-8.3,7c-2.9,2.3-5,4.5-5,8.9c0,5.1-5.2,8.9-9.9,8.4c-4.9-0.6-9-5.4-8.4-10.1
		c0.6-4.9,5.1-8.3,10.2-8.5c2.7-0.1,5.5-1.1,7.9-2.4c10.2-5.6,13.3-14.4,11.9-25.7C29.1,153.2,29.8,146.3,29.8,139.4z M15.9,197.7
		c-2.9-2.3-4.6-4.8-6.3-4.7c-1.6,0.1-4.2,2.6-4.3,4.2c-0.1,1.5,2.3,4.3,3.9,4.5C10.9,202,12.8,199.7,15.9,197.7z"/>
	<path class="st1" d="M307,142.9c0-10.3-0.1-20.6,0.1-30.8c0.1-3.6-1-5.9-4-8c-10-7.1-20-14.3-29.7-21.8c-1.5-1.1-1.9-3.7-2.8-5.6
		c2.1,0.2,4.7-0.4,6.2,0.6c11.2,7.8,22.3,15.9,33.2,24.2c1.8,1.4,3,4.6,3,7c0.2,20.1,0.3,40.3,0,60.4c-0.1,4.6,0.9,8.1,4.9,10.8
		c2.5,1.7,4.4,4.3,7,5.8c2.3,1.3,5.2,2.4,7.8,2.5c5,0.2,9.6,3.6,10.1,8.5c0.5,4.7-3.5,9.5-8.5,10.1c-4.7,0.6-9.9-3.3-9.9-8.4
		c0-4.3-1.9-6.9-5.1-8.8c-10.4-6.3-14.2-15.2-12.5-27.3C307.7,155.9,307,149.4,307,142.9z M339.9,197.3c-3.2-2.2-5.1-4.5-6.6-4.3
		c-1.7,0.3-4.2,2.9-4.2,4.4c0,1.5,2.6,4,4.3,4.2C335,201.9,336.8,199.6,339.9,197.3z"/>
	<path class="st1" d="M293.5,163.6c0,13.7-0.2,27.4,0.2,41.1c0.1,2.6,1.6,5.7,3.4,7.6c3.4,3.7,7.5,6.7,11.3,10.1c3.4,3,6.3,6.1,12,5
		c4.7-0.9,8.5,4,8.5,9c0.1,5-3.5,9-8.4,9.3c-4.9,0.4-9.7-3-9.6-8c0.1-4.6-2.1-7.4-5.3-9.3c-16-9.3-20.4-22.9-18.8-40.9
		c1.6-19.4,0.2-39.1,0.5-58.6c0.1-5.4-1.2-9.2-6-12c-2.8-1.6-5.4-3.6-7.7-5.9c-0.9-0.9-0.8-2.8-1.2-4.2c1.4-0.3,3.4-1.4,4.2-0.8
		c5.5,3.7,10.9,7.7,15.9,11.9c1,0.8,0.9,3.4,0.9,5.1C293.5,136.6,293.5,150.1,293.5,163.6z M326.6,236.3c-3.5-2-5.4-3.9-7.1-3.8
		c-1.5,0.1-4.2,2.8-3.9,3.8c0.4,1.8,2.5,4.3,4.1,4.5C321.3,241,323.2,238.7,326.6,236.3z"/>
	<path class="st1" d="M49.3,163.8c0-13.5,0.1-27-0.1-40.5c0-3.6,0.8-6.1,3.9-8.1c4.1-2.6,7.7-5.9,11.8-8.5c1.3-0.8,3.5-0.2,5.4-0.2
		c-0.6,1.7-1.1,3.4-1.7,5.1c-0.1,0.2-0.3,0.3-0.5,0.4c-11.5,5.3-13.1,14.6-12.7,26.2c0.8,22.8,0.2,45.6,0.3,68.3
		c0,3.9-1,6.9-4.2,9.3c-4.3,3.3-8.3,7.1-12.4,10.6c-3.7,3.2-7.6,5.9-7.5,12.1c0.1,4.7-5.6,7.8-10.3,6.9c-4.8-0.9-7.8-5.1-7.4-10.2
		c0.5-4.9,4.6-9,9.5-8c4.1,0.8,6.2-1.4,9.1-3.2c13.8-8.6,19.6-20.4,17-36.8C48.3,179.7,49.3,171.7,49.3,163.8z M23.1,229.8
		c-2.3,3.4-4.3,5.2-4.3,6.9c0.1,1.5,2.7,4.3,3.8,4.1c1.8-0.3,4.2-2.4,4.5-4.1C27.5,235.3,25.3,233.3,23.1,229.8z"/>
	<path class="st1" d="M28,72c3.3-1.6,7.3-2.4,9.8-4.9c14.6-14.5,31.9-19.7,52.1-17C96.8,51,104,50,111,50.4c2.4,0.2,5.3,1.6,7,3.4
		c3.9,4.1,7.3,8.6,10.5,13.2c0.9,1.2,0.3,3.5,0.4,5.3c-1.7-0.5-3.5-0.9-5.2-1.5c-0.3-0.1-0.6-0.6-0.7-0.9c-6-12-15.9-15.1-28.4-13.2
		c-3.1,0.5-6.6,0.7-9.6,0c-20-4.4-33.5,7.5-47.1,18.8c-1.4,1.1-1.6,3.8-2.1,5.8c-1.1,5-5.6,8.2-10.8,7.3c-4.8-0.8-7.8-4.9-7.3-10.2
		c0.5-4.9,4.4-8.2,9.6-8C27.4,71,27.7,71.5,28,72z M33.5,79.3c-3.6-2-5.7-4.2-7.3-3.8c-1.6,0.3-3.5,2.9-3.8,4.7
		c-0.2,1,2.7,3.6,4.2,3.5C28.3,83.7,30,81.6,33.5,79.3z"/>
	<path class="st1" d="M254.8,50.3c19.5-4.6,34.9,3.2,48.7,15.9c3.5,3.2,7.1,5.8,12.8,4.5c4.8-1.1,8.8,3.3,8.9,8.4
		c0.2,5.1-2.2,8.5-7.3,9.5c-5.2,1-10.4-2.2-10.6-7.3c-0.2-4.1-2.6-5.7-5.1-8.1c-13.8-13.5-29.9-19.5-49.2-16.4
		c-1.6,0.3-3.3,0.3-4.8,0c-12.5-2.1-22.3,1.3-28.6,13.1c-0.8,1.4-3.8,1.7-5.8,2.5c0.3-2.1,0.7-4.2,1-6.3c0-0.2,0.3-0.3,0.3-0.5
		c6.7-12.5,16.8-18,31-15.3C249,50.7,251.9,50.3,254.8,50.3z M316.1,86.5c2.3-3.4,4.4-5.1,4.4-6.8c0-1.5-2.6-4.3-3.7-4.1
		c-1.8,0.3-4.3,2.2-4.7,3.9C311.7,80.9,313.9,82.9,316.1,86.5z"/>
</g>
</svg>
